<svg id="Layer_1" data-name="Layer 1" xmlns="http://www.w3.org/2000/svg" viewBox="0 0 572.57 569.14"><defs><style>.cls-1{fill:#a18585;}.cls-2{fill:#a58b8b;}.cls-3{fill:#9f8383;}.cls-4{fill:#8d6a6a;}.cls-5{fill:#794d4d;}.cls-6{fill:#8c6969;}.cls-7{fill:#8f6d6d;}.cls-8{fill:#7b5050;}.cls-9{fill:#7e5555;}.cls-10{fill:#fff;}.cls-11{fill:#af0020;}</style></defs><title>isave logo</title><path d="M562.29,299.94c-1,.6-.53,1.6-.58,2.41a271.75,271.75,0,0,1-30.44,108.91c-23.82,45.76-58,82-102.11,108.71a274.76,274.76,0,0,1-280.48,2.12A275.17,275.17,0,0,1,42.83,157.79,276.14,276.14,0,0,1,197.32,24.29,267.39,267.39,0,0,1,269.66,9.77c.65,0,1.47.31,1.91-.55h1.61c1.43.59,2.93.14,4.38.28h4.05c1.31-.14,2.65.31,3.93-.28h3.76c1.1.56,2.28.15,3.42.28h4c1.46-.14,3,.3,4.39-.28h1.08c4.5.66,9.05.37,13.57.81a270.58,270.58,0,0,1,42.74,7.85A276.55,276.55,0,0,1,412.8,38.79a266.42,266.42,0,0,1,51.4,34,279.11,279.11,0,0,1,53.89,60.56,277.62,277.62,0,0,1,42.84,117.29c.7,5.69.91,11.39,1.08,17.11,0,.52-.14,1.08.28,1.53v1.08c-.61,1.75-.12,3.56-.28,5.34v3.58c.13,1.14-.29,2.33.28,3.44v3.76c-.59,1.09-.14,2.27-.28,3.4v3.55c.15,1.62-.32,3.28.28,4.87Z"/><path class="cls-1" d="M561.81,275.72c.19-1.77-.7-3.65.48-5.33v5.37C562.11,276,562,276,561.81,275.72Z"/><path class="cls-2" d="M562.29,298.33c-1.12-1.51-.32-3.2-.47-4.8.13-.27.29-.29.47,0Z"/><path class="cls-3" d="M277.45,9.7c-1.42-.2-3,.67-4.27-.48h4.3c.18.12.23.23.17.33S277.51,9.7,277.45,9.7Z"/><path class="cls-4" d="M277.45,9.7a3.87,3.87,0,0,0,0-.48h4.3c.18.13.23.24.16.35s-.13.16-.2.16Z"/><path class="cls-4" d="M296.85,9.7l-4.29,0q-.3-.15-.21-.33c0-.12.11-.18.17-.18h4.3c.17.1.23.2.18.31S296.9,9.7,296.85,9.7Z"/><path class="cls-3" d="M296.85,9.7a3.87,3.87,0,0,1,0-.48h4.3C299.81,10.37,298.27,9.5,296.85,9.7Z"/><path class="cls-5" d="M281.74,9.73c0-.17,0-.34,0-.51h3.76C284.39,10.23,283,9.59,281.74,9.73Z"/><path class="cls-6" d="M561.81,275.72l.48,0v3.76c-.19.26-.35.23-.51,0Z"/><path class="cls-7" d="M562.29,293.49l-.47,0,0-3.77c.15-.26.31-.28.5,0Z"/><path class="cls-5" d="M292.52,9.22c0,.17,0,.34,0,.51-1.1-.11-2.3.46-3.26-.51Z"/><path class="cls-8" d="M561.78,279.49l.51,0v3.23C561.33,281.78,561.89,280.59,561.78,279.49Z"/><path class="cls-9" d="M562.29,289.73l-.5,0c.09-1.1-.45-2.29.5-3.25Z"/><path class="cls-10" d="M286.9,532.62C148.91,532,38.81,421.16,39,284a248.18,248.18,0,1,1,496.36,1C534.92,421.85,424.84,532.23,286.9,532.62Z"/><path class="cls-11" d="M79,276.72c.34-7.74,4.51-14.51,13-17.85,8-3.18,15.76-1.75,22.06,4.4,10.7,10.45,21.2,21.1,31.77,31.68q62.81,62.76,125.56,125.57c5.75,5.76,12.29,8.42,20.37,6.78a21.46,21.46,0,0,0,11-6.31q29.22-29.28,58.51-58.51,49.59-49.58,99.2-99.13a20.52,20.52,0,0,1,33.22,6.12,20.29,20.29,0,0,1-3.81,22.64c-5.77,6-11.74,11.81-17.63,17.7q-77.42,77.42-154.85,154.8c-12.62,12.6-27.52,16.33-44.52,10.48A40.42,40.42,0,0,1,257.51,465Q171.16,378.7,84.82,292.34C80.9,288.42,79.07,283.6,79,276.72Z"/><path class="cls-11" d="M354.33,298.86c-13.05,13.53-26,27.13-39.17,40.56-8.64,8.83-17.55,17.4-26.29,26.14-1.07,1.07-1.68,1.39-2.93.14Q253.07,333,220.13,300.46c-.23-.23-.42-.49-1-1.15h4.9c10.48,0,20.95-.07,31.43.06,2.19,0,2.63-.66,2.62-2.71q-.12-25.79,0-51.57c0-2.37-.57-3-3-3-32.77.08-65.54,0-98.32.07-7,0-13.09-1.89-17.31-7.79a18,18,0,0,1-2-18.53c2.81-6.42,8-10.16,15-11a50.61,50.61,0,0,1,6.16-.27q129.21,0,258.41-.05c7.11,0,13.25,1.89,17.63,7.77,4.25,5.72,4.81,12.09,2.11,18.51s-7.89,10.21-14.92,11.1a48.84,48.84,0,0,1-6.17.28q-48.08,0-96.16,0c-2.4,0-2.92.61-2.9,2.94q.15,25.65,0,51.3c0,2.57.78,3,3.12,3,11.37-.12,22.74-.06,34.11-.05.42,0,.84,0,1.26.05Z"/></svg>